<svg width="283" height="55" viewBox="0 0 283 55" fill="none" xmlns="http://www.w3.org/2000/svg">
<path d="M0 27.4165L18.2829 18.2713H0.346992V11.0723H34.4996V18.2713L16.2167 27.4165H34.9508V34.6156H0V27.4165Z" fill="#023540"/>
<path d="M62.6271 34.6154L62.5928 34.701L39.2745 34.6154V11.0723H62.6271C64.3988 11.0724 66.1584 11.3578 67.8361 11.9173C69.3655 12.3844 70.7788 13.1601 71.9856 14.1947C74.6477 16.6164 75.979 19.4995 75.9795 22.8439C75.9799 26.1883 74.6487 29.0715 71.9856 31.4936C70.7788 32.5282 69.3655 33.304 67.8361 33.7711C66.1583 34.33 64.3987 34.6153 62.6271 34.6154ZM66.2561 22.8439C66.2561 21.1271 65.7238 19.8873 64.659 19.1244C63.8379 18.5527 62.8523 18.2538 61.846 18.2714H48.9801V27.4166H61.846C62.855 27.4342 63.8424 27.1286 64.659 26.546C65.7233 25.7845 66.2557 24.5504 66.2561 22.8439V22.8439Z" fill="#023540"/>
<path d="M114.542 16.0538C114.706 16.765 114.793 17.4911 114.802 18.2202C114.802 20.939 113.5 22.9067 110.895 24.1234C113.153 25.0108 114.316 26.4838 114.386 28.5423C114.455 30.6008 114.643 32.048 114.95 32.8837C115.15 33.5701 115.566 34.1764 116.139 34.6154H104.992C104.643 34.319 104.417 33.9059 104.359 33.4558C104.269 32.9173 104.225 32.3722 104.228 31.8265C104.229 31.2521 104.183 30.6786 104.089 30.1116C104.062 29.7664 103.93 29.4372 103.71 29.1665C103.491 28.8958 103.193 28.6962 102.857 28.5935C101.892 28.3565 100.899 28.2531 99.9047 28.2863H88.9141V34.6154H79.2087V11.0723H105.027C108.997 11.0723 111.74 11.9481 113.257 13.6995C113.869 14.3735 114.309 15.1803 114.542 16.0538ZM104.61 18.5961C104.136 18.1757 103.152 17.9652 101.659 17.9648H88.9141V21.3768H101.659C102.369 21.4064 103.079 21.3052 103.751 21.0783C104.149 20.9465 104.499 20.7034 104.758 20.3789C104.915 20.1732 105.009 19.9273 105.027 19.6707C105.04 19.4727 105.01 19.2743 104.938 19.0889C104.866 18.9035 104.754 18.7354 104.61 18.5961Z" fill="#023540"/>
<path d="M117.181 34.6154L131.731 11.055H144.058L158.591 34.6154H146.801L145.187 31.5961H130.603L128.97 34.6154H117.181ZM141.489 24.6861L137.895 17.9816L134.301 24.6861H141.489Z" fill="#023540"/>
<path d="M172.204 27.7061L181.111 11.0723H192.9L178.367 34.6154H166.04L151.49 11.0723H163.279L172.204 27.7061Z" fill="#023540"/>
<path d="M215.558 10.3554C219.691 10.5265 223.059 11.323 225.664 12.7447C229.472 14.9393 231.376 18.3057 231.376 22.8439C231.376 27.3821 229.472 30.7487 225.664 32.9437C223.059 34.3661 219.691 35.1623 215.558 35.3324C213.88 35.4004 212.462 35.4346 211.305 35.4348C210.159 35.4348 208.741 35.4007 207.051 35.3324C202.919 35.1612 199.55 34.365 196.946 32.9437C193.137 30.7491 191.233 27.3825 191.233 22.8439C191.233 18.3064 193.137 14.94 196.946 12.7448C199.55 11.323 202.918 10.5266 207.051 10.3554C208.741 10.288 210.159 10.2539 211.305 10.253C212.462 10.253 213.88 10.2871 215.558 10.3554ZM211.305 17.231C207.485 17.231 204.857 17.6916 203.422 18.6129C202.941 18.9357 202.548 19.369 202.276 19.875C201.8 20.7936 201.562 21.8132 201.582 22.8437C201.588 23.3219 201.637 23.7987 201.729 24.2683C201.83 24.8048 202.015 25.3228 202.277 25.8039C202.552 26.3097 202.945 26.7452 203.422 27.0754C204.214 27.5564 205.097 27.8754 206.018 28.0134C207.053 28.2026 208.1 28.3225 209.152 28.372C210.17 28.4178 210.888 28.4405 211.305 28.44C215.136 28.44 217.77 27.9852 219.205 27.0756C219.673 26.7431 220.058 26.3115 220.334 25.8128C220.809 24.8942 221.048 23.8747 221.028 22.8441C221.022 22.3658 220.973 21.8891 220.88 21.4195C220.778 20.8806 220.594 20.3599 220.333 19.8751C220.064 19.3724 219.677 18.9398 219.205 18.6131C218.405 18.1341 217.517 17.8151 216.592 17.6745C215.556 17.4856 214.509 17.3632 213.457 17.3079C212.439 17.2566 211.721 17.231 211.305 17.231Z" fill="#023540"/>
<path d="M283 26.8474H272.642L279.988 34.0232L273.001 40.9229L265.592 33.6854V43.9519H255.684V33.7746L248.381 40.9922L241.352 34.1268L248.718 26.8474H238.269V17.1119H248.634L241.289 9.93573L248.269 3.02898L255.684 10.2739V0H265.592V10.1843L272.895 2.96722L279.917 9.82564L272.544 17.1119H283V26.8474Z" fill="#B8DA46"/>
<path d="M1.28903 43.9874V47.4885L5.40714 43.9874H7.16143L2.59605 47.8228L7.80615 52.4844H5.96208L1.28903 48.2976V52.4844H0V43.9874H1.28903Z" fill="#023540"/>
<path d="M8.54089 51.3233C8.65353 51.3395 8.76746 51.3454 8.8812 51.3409C9.65118 51.3409 10.1523 50.8485 10.4209 49.9336C10.7092 48.8781 10.8537 47.7898 10.8505 46.697L10.9223 43.9873H17.3857V52.4843H16.0966V45.0957H12.1578L12.1039 46.7316C12.0863 47.2599 12.0684 47.717 12.0324 48.1043C11.9807 48.9684 11.806 49.8211 11.5134 50.6376C11.1193 51.6577 10.2778 52.5726 8.91729 52.5021C8.79161 52.5069 8.66575 52.501 8.5411 52.4844L8.54089 51.3233Z" fill="#023540"/>
<path d="M20.627 40.4341C20.7114 40.3499 20.8119 40.283 20.9228 40.2372C21.0336 40.1914 21.1525 40.1676 21.2728 40.1672C21.393 40.1667 21.5122 40.1897 21.6233 40.2347C21.7345 40.2797 21.8355 40.3459 21.9205 40.4294C22.0056 40.5129 22.0729 40.6121 22.1188 40.7214C22.1646 40.8306 22.188 40.9476 22.1876 41.0658C22.1872 41.1839 22.163 41.3008 22.1164 41.4097C22.0698 41.5186 22.0017 41.6174 21.9161 41.7004C21.7448 41.8664 21.5136 41.9591 21.273 41.9583C21.0324 41.9574 20.8019 41.8632 20.6318 41.6961C20.4616 41.5289 20.3656 41.3024 20.3648 41.066C20.3639 40.8296 20.4581 40.6025 20.627 40.4341ZM20.627 52.4844V43.9874H21.9161V52.4844H20.627Z" fill="#023540"/>
<path d="M25.1569 52.4844V43.9874H26.4459V47.5588H31.7634V43.9874H33.0524V52.4844H31.7634V48.7018H26.4459V52.4844H25.1569Z" fill="#023540"/>
<path d="M36.2946 40.4341C36.4659 40.2681 36.697 40.1754 36.9376 40.1762C37.1782 40.177 37.4087 40.2713 37.5789 40.4384C37.749 40.6055 37.845 40.832 37.8459 41.0684C37.8468 41.3048 37.7525 41.532 37.5836 41.7004C37.4992 41.7845 37.3987 41.8514 37.2879 41.8972C37.1771 41.943 37.0581 41.9668 36.9379 41.9673C36.8176 41.9677 36.6985 41.9448 36.5873 41.8998C36.4762 41.8548 36.3752 41.7886 36.2901 41.7051C36.2051 41.6215 36.1377 41.5223 36.0919 41.4131C36.0461 41.3039 36.0227 41.1868 36.0231 41.0687C36.0235 40.9505 36.0477 40.8336 36.0943 40.7247C36.1409 40.6158 36.209 40.517 36.2946 40.4341ZM36.2946 52.4844V43.9874H37.5836V52.4844H36.2946Z" fill="#023540"/>
<path d="M42.1134 43.9874V47.4885L46.2316 43.9874H47.9858L43.4205 47.8228L48.6306 52.4844H46.7867L42.1136 48.2976V52.4844H40.8246V43.9874H42.1134Z" fill="#023540"/>
<path d="M50.5471 51.9568C50.2362 51.7064 49.9887 51.3886 49.824 51.0284C49.6593 50.6682 49.5819 50.2753 49.5979 49.8807C49.5857 49.4839 49.6704 49.09 49.8449 48.732C50.0194 48.374 50.2786 48.0622 50.6009 47.8228C51.3376 47.2968 52.2332 47.0301 53.1431 47.066C54.2384 47.0602 55.3149 47.346 56.2583 47.8928V47.0484C56.2583 45.6234 55.3095 44.9201 53.4116 44.9201C52.4011 44.9159 51.4137 45.2168 50.583 45.7822V44.5504C51.5206 44.0109 52.5943 43.7426 53.6803 43.7766C55.9899 43.7766 57.5475 44.8674 57.5475 46.9256V50.426C57.5475 51.0772 57.8699 51.482 58.371 51.482C58.5443 51.4865 58.7163 51.4503 58.8725 51.3762V52.361C58.6359 52.4835 58.3736 52.5501 58.1063 52.5556C57.839 52.561 57.5741 52.5052 57.3326 52.3926C57.091 52.28 56.8795 52.1136 56.7148 51.9067C56.5501 51.6997 56.4368 51.4579 56.3837 51.2005C55.9544 51.6924 55.4173 52.0824 54.8127 52.3413C54.2081 52.6002 53.5517 52.7212 52.8927 52.6953C52.0482 52.7182 51.2208 52.4577 50.5471 51.9568ZM56.2583 50.1268V48.9488C55.4266 48.4012 54.4487 48.1074 53.4475 48.1043C51.872 48.1043 50.8875 48.7547 50.8875 49.8108C50.8875 50.9536 51.9077 51.5519 53.2506 51.5519C53.827 51.5419 54.3943 51.4094 54.9135 51.1634C55.4327 50.9174 55.8915 50.5637 56.2583 50.1268Z" fill="#023540"/>
<path d="M66.3758 51.4291C65.9458 51.0121 65.6079 50.5126 65.3831 49.9618C65.1582 49.4109 65.0512 48.8204 65.0688 48.2271C65.0546 47.6379 65.165 47.0523 65.393 46.5072C65.621 45.9621 65.9617 45.4695 66.3934 45.0604C66.8248 44.6375 67.3395 44.3055 67.906 44.0847C68.4725 43.864 69.0788 43.7591 69.688 43.7765C70.5987 43.7565 71.4992 43.9687 72.3016 44.3923V45.5711C71.5629 45.1462 70.7227 44.9215 69.8668 44.92C69.4085 44.9076 68.9523 44.9853 68.525 45.1485C68.0977 45.3117 67.7079 45.557 67.3784 45.8702C67.052 46.1746 66.7954 46.5438 66.6256 46.9532C66.4558 47.3626 66.3766 47.8029 66.3934 48.2447C66.3801 48.6862 66.4608 49.1256 66.6305 49.5346C66.8001 49.9436 67.0548 50.3133 67.3784 50.6199C68.0509 51.2399 68.9449 51.5747 69.8668 51.5519C70.7875 51.5642 71.6912 51.3071 72.4628 50.8132V51.9744C71.6171 52.4627 70.6507 52.7122 69.67 52.6953C69.0626 52.7118 68.458 52.6082 67.8921 52.3907C67.3262 52.1732 66.8106 51.8461 66.3758 51.4291Z" fill="#023540"/>
<path d="M75.2746 40.4341C75.4459 40.2681 75.6771 40.1754 75.9177 40.1762C76.1583 40.177 76.3888 40.2713 76.5589 40.4384C76.7291 40.6055 76.8251 40.832 76.826 41.0684C76.8269 41.3048 76.7326 41.532 76.5637 41.7004C76.3924 41.8664 76.1612 41.9591 75.9206 41.9582C75.68 41.9574 75.4495 41.8632 75.2794 41.696C75.1092 41.5289 75.0132 41.3024 75.0123 41.066C75.0114 40.8296 75.1057 40.6024 75.2746 40.4341ZM75.2746 52.4844V43.9874H76.5639V52.4844H75.2746Z" fill="#023540"/>
<path d="M79.8045 52.4844V43.9874H81.058L84.5134 47.928L87.9865 43.9874H89.2396V52.4844H87.9865V45.7291L84.764 49.4059H84.2625L81.058 45.7291V52.4844H79.8045Z" fill="#023540"/>
<path d="M93.019 51.4467C92.5709 51.0407 92.2174 50.5444 91.9826 49.9918C91.7478 49.4392 91.6372 48.8432 91.6584 48.2447C91.6214 47.0672 92.0589 45.9228 92.8757 45.0604C93.2802 44.6367 93.7723 44.303 94.3188 44.0816C94.8654 43.8601 95.4538 43.7561 96.0447 43.7765C98.9451 43.7765 100.091 46.2744 100.091 48.1918V48.5438H92.9829C93.1265 50.3737 94.5943 51.5519 96.6713 51.5519C97.6548 51.5581 98.6189 51.2831 99.4461 50.7603V51.886C98.4629 52.4834 97.3136 52.7623 96.1604 52.6835C95.0072 52.6046 93.9083 52.172 93.0188 51.4465L93.019 51.4467ZM98.784 47.5061C98.7461 46.847 98.4809 46.2203 98.032 45.7291C97.7791 45.4479 97.463 45.2283 97.1088 45.0879C96.7546 44.9474 96.3719 44.89 95.9912 44.92C95.6043 44.9043 95.2182 44.9646 94.8553 45.0975C94.4925 45.2304 94.1603 45.4331 93.8783 45.6938C93.3679 46.1706 93.0554 46.8162 93.001 47.5061H98.784Z" fill="#023540"/>
<path d="M102.509 52.4844V43.9874H103.798V50.62L109.33 43.9874H110.53V52.4844H109.241V45.8702L103.709 52.4844H102.509ZM103.601 39.8711H104.747C104.74 40.0976 104.782 40.3229 104.87 40.5323C104.958 40.7418 105.09 40.9306 105.257 41.0867C105.424 41.2427 105.623 41.3623 105.841 41.4378C106.058 41.5133 106.289 41.543 106.519 41.5248C106.748 41.54 106.978 41.5083 107.194 41.4317C107.41 41.3552 107.608 41.2354 107.774 41.08C107.941 40.9246 108.073 40.7369 108.162 40.5288C108.251 40.3208 108.295 40.0968 108.292 39.8711H109.419C109.402 41.4894 108.184 42.5448 106.537 42.5448C104.801 42.5448 103.619 41.4894 103.601 39.8711H103.601Z" fill="#023540"/>
<path d="M113.574 52.4844V43.9874H114.863V47.5588H120.181V43.9874H121.47V52.4844H120.181V48.7018H114.863V52.4844H113.574Z" fill="#023540"/>
<path d="M128.561 43.7765C129.185 43.7545 129.806 43.8605 130.385 44.0877C130.965 44.3148 131.49 44.6581 131.927 45.0956C132.765 45.9371 133.234 47.0675 133.234 48.2447C133.234 49.4219 132.765 50.5523 131.927 51.3938C131.013 52.2303 129.81 52.6955 128.561 52.6955C127.312 52.6955 126.109 52.2303 125.195 51.3938C124.357 50.5523 123.888 49.4219 123.888 48.2447C123.888 47.0675 124.357 45.9371 125.195 45.0956C125.632 44.658 126.157 44.3147 126.737 44.0876C127.316 43.8605 127.937 43.7545 128.561 43.7765ZM130.96 45.8702C130.315 45.2605 129.456 44.9199 128.561 44.9199C127.666 44.9199 126.806 45.2605 126.162 45.8702C125.552 46.5124 125.213 47.358 125.213 48.2362C125.213 49.1144 125.552 49.96 126.162 50.6022C126.807 51.2114 127.666 51.5517 128.561 51.5517C129.455 51.5517 130.315 51.2114 130.96 50.6022C131.57 49.9601 131.909 49.1145 131.909 48.2362C131.909 47.3579 131.57 46.5123 130.96 45.8702Z" fill="#023540"/>
<path d="M134.041 40.5392C134.117 40.4602 134.208 40.3973 134.31 40.3543C134.412 40.3112 134.521 40.289 134.632 40.289C134.742 40.289 134.852 40.3112 134.953 40.3543C135.055 40.3973 135.146 40.4602 135.222 40.5392C135.303 40.6155 135.367 40.7071 135.411 40.8083C135.455 40.9096 135.477 41.0186 135.477 41.1286C135.477 41.2387 135.455 41.3476 135.411 41.4489C135.367 41.5502 135.303 41.6417 135.222 41.718C135.06 41.8623 134.85 41.9422 134.632 41.9422C134.413 41.9422 134.203 41.8623 134.041 41.718C133.96 41.6417 133.896 41.5502 133.852 41.4489C133.808 41.3476 133.786 41.2387 133.786 41.1286C133.786 41.0186 133.808 40.9096 133.852 40.8083C133.896 40.7071 133.96 40.6155 134.041 40.5392ZM135.76 52.4844V43.9874H137.066V52.4844H135.76ZM137.621 40.5392C137.697 40.4602 137.789 40.3972 137.89 40.3542C137.992 40.3111 138.102 40.2889 138.212 40.2889C138.323 40.2889 138.432 40.3111 138.534 40.3542C138.636 40.3972 138.727 40.4602 138.803 40.5392C138.884 40.6155 138.948 40.7071 138.992 40.8083C139.036 40.9096 139.058 41.0186 139.058 41.1286C139.058 41.2387 139.036 41.3476 138.992 41.4489C138.948 41.5502 138.884 41.6417 138.803 41.718C138.641 41.8624 138.431 41.9423 138.212 41.9423C137.994 41.9423 137.783 41.8624 137.621 41.718C137.541 41.6417 137.477 41.5501 137.433 41.4489C137.389 41.3476 137.366 41.2387 137.366 41.1286C137.366 41.0186 137.389 40.9097 137.433 40.8084C137.477 40.7071 137.541 40.6156 137.621 40.5392Z" fill="#023540"/>
<path d="M144.981 52.4844V43.9874H146.234L149.689 47.928L153.163 43.9874H154.416V52.4844H153.163V45.7291L149.94 49.4059H149.439L146.234 45.7291V52.4844H144.981Z" fill="#023540"/>
<path d="M158.195 51.4467C157.747 51.0407 157.393 50.5444 157.159 49.9918C156.924 49.4392 156.813 48.8432 156.834 48.2447C156.797 47.0672 157.235 45.9228 158.052 45.0604C158.456 44.6367 158.948 44.303 159.495 44.0815C160.041 43.8601 160.63 43.7561 161.221 43.7765C164.121 43.7765 165.267 46.2744 165.267 48.1918V48.5438H158.159C158.302 50.3737 159.77 51.5519 161.847 51.5519C162.831 51.5582 163.795 51.2831 164.622 50.7603V51.886C163.639 52.4834 162.49 52.7623 161.337 52.6835C160.183 52.6046 159.084 52.172 158.195 51.4466V51.4467ZM163.96 47.5061C163.922 46.847 163.657 46.2203 163.208 45.7291C162.955 45.4479 162.639 45.2283 162.285 45.0879C161.93 44.9474 161.548 44.8899 161.167 44.92C160.78 44.9043 160.394 44.9647 160.031 45.0976C159.668 45.2305 159.336 45.4332 159.054 45.6938C158.544 46.1706 158.231 46.8162 158.177 47.5061H163.96Z" fill="#023540"/>
<path d="M166.557 55V51.3762H167.65C168.616 50.1268 169.099 48.0514 169.117 45.1838L169.135 43.9874H175.563V51.3762H177.174V55H175.921V52.4846H167.793V55H166.557ZM174.273 51.3762V45.0957H170.335V45.6057C170.335 48.1389 169.923 50.057 169.082 51.3762H174.273Z" fill="#023540"/>
<path d="M179.288 52.4844V43.9874H180.577V50.62L186.109 43.9874H187.309V52.4844H186.02V45.8702L180.488 52.4844H179.288Z" fill="#023540"/>
<path d="M198.428 55V52.4846H190.353V43.9874H191.643V51.3762H196.781V43.9874H198.07V51.3762H199.663V55H198.428Z" fill="#023540"/>
<path d="M201.777 52.4844V43.9874H203.066V50.62L208.599 43.9874H209.798V52.4844H208.509V45.8702L202.977 52.4844H201.777Z" fill="#023540"/>
<path d="M212.843 52.4844V43.9874H214.132V47.5588H219.449V43.9874H220.738V52.4844H219.449V48.7018H214.132V52.4844H212.843Z" fill="#023540"/>
<path d="M223.783 52.4844V43.9874H225.072V50.62L230.605 43.9874H231.804V52.4844H230.515V45.8702L224.983 52.4844H223.783Z" fill="#023540"/>
</svg>
