<svg version="1.2" xmlns="http://www.w3.org/2000/svg" viewBox="0 0 193 203" width="193" height="203">
	<title>viber-svg</title>
	<style>
		.s0 { fill: #ffffff } 
	</style>
	<g id="viber_1_">
		<path id="Layer" class="s0" d="m63.4 197.8q-1.5 0-3.2-0.6c-5.6-1.7-6.9-8.3-6.7-11.9v-15.8c-42.9-13.7-41.9-59.7-41.5-82.1 0.5-23.1 4.9-39.5 13.8-51.6 1.1-1.4 3-1.7 4.4-0.7 1.4 1 1.7 3 0.7 4.4-8.2 11-12.2 26.3-12.6 48.1-0.5 22.7-1.4 65.1 39 76.5 0.6 0.1 1.1 0.4 1.5 0.8 0.6 0.6 0.9 1.4 0.9 2.2v18.3c0 1.1 0.3 5.2 2.4 5.9 2.7 0.8 4.6-1 9.1-6q1.2-1.5 2.7-3c3-3.3 7.2-8.2 10.4-11.8 0.7-0.8 1.7-1.2 2.7-1.1 30.3 2.5 52.5-3.8 52.7-3.8 0.6-0.2 1.4-0.4 2.4-0.7 9.7-2.5 35.3-9 40-47 5-40.8-0.9-70.9-16.6-84.5-3.1-2.8-20.1-16.6-61.2-16.8-0.5 0-27.9-1.5-50.6 7-1.6 0.6-3.4-0.2-4-1.9-0.6-1.6 0.2-3.4 1.8-4 24-8.9 51.8-7.4 53-7.3 43.3 0.2 61.9 15.3 65.2 18.3 17.2 15 23.8 47 18.6 90-5.2 42.2-34.9 49.8-44.6 52.3q-1.3 0.3-2.1 0.5c-4.5 1.4-26.5 6.2-53.6 4.2-3 3.6-6.8 7.9-9.6 10.9q-1.3 1.4-2.5 2.8c-3.7 4.1-7.4 8.4-12.5 8.4z"/>
	</g>
	<g id="viber_1_">
		<path id="Layer" fill-rule="evenodd" class="s0" d="m127.6 145.2q-1.9 0-3.8-0.6l-1.1-0.4c-8.6-2.8-25.6-11.8-36.1-20.2-5.7-4.5-11.2-10-15.5-15.5-4.1-5.1-7.8-10.8-11.2-17-7.7-13.7-9.4-20.1-9.5-20.4-2.9-8.9 5.3-17.3 13.2-21.8l0.9-0.4c4.3-1.9 8.8-0.9 11.6 2.5 0 0 4.5 5.3 6.4 8 1.9 2.5 4.4 6.6 5.6 8.7 3 5.3 1.1 10.9-2.2 13.4l-4.1 3.4c-0.7 0.5-0.8 2-0.8 2.2 0.1 0 6.3 21.7 27.5 27.1 0.4-0.1 1.4-0.3 1.8-0.8l3.4-4.3c2.7-3.5 8.7-4.6 13.4-2 4.6 2.6 11.7 7.3 16.8 12.1 3.3 2.7 4.2 7 2.3 11.3v0.1l-0.4 0.8c-1.8 3.2-8.6 13.8-18.2 13.8zm-0.9-6.3c4.9 0.8 10.4-5.1 13.5-10.2l0.1-0.4q1.5-2.8-0.5-4.4c-4-3.8-10.1-8.2-15.8-11.4-2.1-1.2-4.7-0.4-5.4 0.5l-3.4 4.3c-2.2 2.8-5.7 3.1-7.1 3.1l-0.6-0.1c-25.5-6.4-32.3-31.1-32.6-32.1-0.1-1-0.4-5.5 3-8.2l4.2-3.4c0.8-0.6 2-2.8 0.5-5.5-1.3-2.3-3.6-5.9-5.1-8-1.9-2.6-6.2-7.7-6.2-7.7-1.2-1.5-2.7-1.6-4.6-0.6l-0.6 0.3c-4.8 2.8-11.5 8.7-9.7 14.3 0 0.2 1.8 6.1 8.9 19.1 3.3 5.9 6.8 11.3 10.6 16.1 4.1 5.2 9.3 10.3 14.5 14.5 11.3 8.9 28.6 17.6 35.1 19.4z"/>
	</g>
	<g id="viber_1_">
		<path id="Layer" class="s0" d="m144.8 88.4c-1.8 0-3.2-1.4-3.2-3.2 0-18.9-15.4-34.3-34.4-34.3-1.7 0-3.1-1.4-3.1-3.2 0-1.7 1.4-3.1 3.1-3.1 22.4 0 40.7 18.2 40.7 40.6 0 1.8-1.4 3.2-3.2 3.2z"/>
	</g>
	<g id="viber_1_">
		<path id="Layer" class="s0" d="m132.3 88.4c-1.8 0-3.2-1.4-3.2-3.2 0-12-9.8-21.8-21.9-21.8-1.7 0-3.1-1.4-3.1-3.2 0-1.7 1.4-3.1 3.1-3.1 15.6 0 28.2 12.6 28.2 28.1 0 1.8-1.4 3.2-3.2 3.2z"/>
	</g>
	<g id="viber_1_">
		<path id="Layer" class="s0" d="m119.8 88.4c-1.8 0-3.2-1.4-3.2-3.2 0-5.1-4.2-9.3-9.3-9.3-1.8 0-3.2-1.4-3.2-3.2 0-1.7 1.4-3.1 3.2-3.1 8.6 0 15.6 7 15.6 15.6 0 1.8-1.4 3.2-3.1 3.2z"/>
	</g>
	<g id="viber_1_">
		<path id="Layer" class="s0" d="m41.6 29c-1.7 0-3.1-1.4-3.1-3.1 0-1.7 1.4-3.1 3.1-3.1 1.8 0 3.2 1.4 3.2 3.1 0 1.7-1.4 3.1-3.2 3.1z"/>
	</g>
</svg>